<svg fill="none" height="16" viewBox="0 0 16 16" width="16" xmlns="http://www.w3.org/2000/svg"><g fill="#000"><path d="m7.58638.102166c.23352-.1362213.52229-.1362213.75581 0l6.21431 3.625004c.2304.1344.3721.38108.3721.64783v7.25c0 .2668-.1417.5134-.3721.6478l-6.21431 3.625c-.23352.1363-.52229.1363-.75581 0l-6.21428-3.625c-.23042-.1344-.3721-.381-.3721-.6478v-7.25c0-.26675.14168-.51343.3721-.64783zm.37791 14.279534 5.46431-3.1875v-6.38842l-5.46431-3.1875-5.46429 3.1875v6.38842z"/><path d="m8.00017 5.5c-1.38081 0-2.50017 1.11936-2.50017 2.50017 0 1.3808 1.11936 2.50013 2.50017 2.50013.71209 0 1.35363-.2967 1.80992-.7753.28581-.2998.76051-.31114 1.06031-.02532.2999.28582.3112.76052.0254 1.06032-.7276.7632-1.75654 1.2403-2.89563 1.2403-2.20923 0-4.00017-1.7909-4.00017-4.00013s1.79094-4.00017 4.00017-4.00017c1.13428 0 2.15933.47309 2.88643 1.23069.2868.29885.277.77363-.0218 1.06043-.2989.28681-.7737.27705-1.06047-.02181-.45593-.47507-1.09505-.76931-1.80416-.76931z"/></g></svg>